<?xml version="1.0" encoding="utf-8"?>
<!-- Generator: Adobe Illustrator 26.3.1, SVG Export Plug-In . SVG Version: 6.00 Build 0)  -->
<svg version="1.1" id="Layer_1" xmlns="http://www.w3.org/2000/svg" xmlns:xlink="http://www.w3.org/1999/xlink" x="0px" y="0px"
	 viewBox="0 0 163.6 175.4" style="fill:currentColor;" xml:space="preserve">
<path d="M114.9,44.5c21.2,25.8,9.2,22.7,29.8,41.5c3.4,0.8,23.7,10.5,15.1,33.5c4.1,8.3,4.6,17.4-3.8,20.7
	c6-14.8-32.1-50.2-70.1-2.1c-7.4,9.7-9.9,25-1.8,34.5c-7.3-2.7-10.9-8.3-11.7-16c0.2-7.2-0.5-11.3,6.4-20.4
	c-15.3,4.1-20.7,24.2-18.9,36.3c-5.4-0.3-11.2-5.7-10.2-15.4c2.5-17.2,15.3-23.3,15.3-23.3c-20.6,8.1-25.1,21.9-31.5,26
	c-11.7,5.4-11,0.4-29.4,9.5c-1.8-2.5,8.8-38.4,52.8-46.9c-23.5-3.1-40,4.7-52.7,25.4c0.4-13.6,6.1-28.1,23.4-35.8
	c25.2-10.4,43.5-3.1,43.5-3.1s-3.9-7.3-16-14.9c-11.4-6.9-16.1-8-21.2-9.6c-5.1-1.6-17.4-6.1-20.2-21.3c25.1,10,39.4,9,61.6,23.3
	c-5-7.2-9.9-22.2-50.5-29.4C15.9,54.8,7.8,46,9,39.5c14,6.5,37.7,1.6,72.9,25c-17-24.7-53.8-39.2-53.8-39.2s-12.3-7.9-12.8-20
	c16.7,10.9,53.9,18.8,77.9,45c3.1,3.6,5.2,6.1,11.1,12.8c-2.8-8.7-0.6-9.5-11.3-19.3C70.2,24.4,75,29.5,63.3,17.4
	c-4-3.9-6.9-13.8-3.7-16.4C87.8,27.7,90.4,18.9,114.9,44.5z"/>
</svg>
