<svg xmlns="http://www.w3.org/2000/svg" viewBox="0 0 163.63 175.35"><defs><style>.a{fill:currentColor;}</style></defs><path class="a" d="M79.43,7.22,134.77,30.4,145.69,85s23.71,10.5,15.05,33.47c4.15,8.28,4.57,17.41-3.76,20.66,6-14.78-54.64-30.64-59.58,23.14-9.6,26.13-18.91,6.22-19.06-.84s8.19-30.63,8.19-30.63L68.74,161.32S57,174.59,51.38,158.78c0-8.47,11.86-22.45,11.86-22.45-13.84,12.14-36.14,33.6-36.14,33.6s-33.74,9.6-15-16.37C16,138,46.75,134.07,50.42,128.85S2.25,144,2.25,144s-8.33-20.19,7.06-24.43,67.34-19.34,67.34-19.34l-39.39-11S22,83.67,24.7,67c18.21,2.54,42.21,7,42.21,7L24,56.85s-9.46-7.91-6.49-19.06c25.55,4.66,37,7.34,37,7.34L23,26.07s-7.2-7.62-5.64-14.82,10.58-7.34,15.53-4,68.18,42.57,68.18,42.57l8.33,32.05,4.52-.85-8.61-33.74L61.83,18.73S46.3,4.47,55.76.8,79.43,7.22,79.43,7.22Z"/></svg>